<?xml version="1.0" standalone="no"?>
<!DOCTYPE svg PUBLIC "-//W3C//DTD SVG 20010904//EN"
 "http://www.w3.org/TR/2001/REC-SVG-20010904/DTD/svg10.dtd">
<svg version="1.0" xmlns="http://www.w3.org/2000/svg"
 width="768.000000pt" height="768.000000pt" viewBox="0 0 768.000000 768.000000"
 preserveAspectRatio="xMidYMid meet">
<metadata>
Created by potrace 1.14, written by Peter Selinger 2001-2017
</metadata>
<g transform="translate(0.000000,768.000000) scale(0.100000,-0.100000)"
fill="#000000" stroke="none">
<path d="M1416 6074 c-62 -19 -91 -38 -139 -87 -93 -97 -90 -61 -91 -1007 -1
-769 -2 -827 -19 -851 -28 -42 -58 -49 -197 -49 l-130 0 0 -240 0 -240 125 0
c143 0 188 -12 207 -57 8 -20 12 -251 13 -853 2 -803 3 -827 23 -882 37 -103
97 -163 200 -197 55 -19 85 -21 305 -21 l243 0 0 160 0 160 -170 0 c-198 0
-226 9 -246 77 -7 25 -11 294 -13 808 l-2 770 -26 55 c-57 119 -159 186 -289
191 -68 2 -80 7 -76 32 2 18 10 22 46 23 73 3 122 14 170 38 61 31 101 71 142
143 l33 58 2 775 c2 517 6 788 13 813 20 68 48 77 246 77 l170 0 0 160 0 160
-246 -1 c-188 0 -256 -4 -294 -15z"/>
<path d="M5724 5930 l0 -160 168 0 c134 0 175 -3 199 -16 60 -31 59 -10 59
-849 0 -755 1 -766 22 -823 50 -135 159 -210 310 -214 47 -1 59 -5 64 -21 8
-26 2 -29 -63 -34 -143 -10 -234 -64 -293 -174 l-35 -64 -3 -775 c-2 -472 -7
-789 -13 -812 -8 -32 -47 -73 -71 -77 -5 -1 -84 -1 -176 -1 l-168 0 0 -161 -1
-160 266 3 266 3 50 27 c85 46 140 109 170 193 16 46 18 120 19 875 2 592 6
833 14 852 20 47 57 58 202 58 l130 0 0 240 0 240 -125 0 c-143 0 -188 12
-207 57 -9 21 -12 245 -14 853 -1 752 -3 829 -19 875 -21 63 -74 132 -127 168
-76 51 -119 57 -383 57 l-241 0 0 -160z"/>
<path d="M3894 4535 c-71 -31 -104 -116 -70 -180 49 -90 186 -93 231 -4 33 62
15 135 -40 169 -41 25 -85 31 -121 15z"/>
<path d="M3059 4482 c0 -20 -1 -137 -1 -260 -1 -143 -5 -225 -11 -229 -6 -4
-13 0 -15 7 -11 31 -88 101 -136 124 -151 71 -340 43 -465 -70 -101 -91 -143
-191 -147 -354 -4 -141 6 -195 52 -286 50 -102 129 -168 247 -210 99 -35 256
-20 339 32 44 28 108 90 108 105 0 5 6 9 14 9 12 0 14 -15 13 -70 l-2 -70 75
0 76 0 -1 653 0 652 -72 2 -73 1 -1 -36z m-205 -480 c72 -28 130 -83 167 -158
30 -60 33 -74 33 -162 1 -123 -25 -200 -90 -265 -66 -67 -122 -91 -219 -91
-204 -1 -318 135 -312 367 2 74 8 103 29 147 71 154 238 223 392 162z"/>
<path d="M4956 4154 c-77 -20 -151 -63 -197 -115 -24 -27 -47 -49 -51 -49 -4
0 -8 34 -8 75 l0 76 -72 -3 -73 -3 0 -651 -1 -650 67 1 c38 0 70 3 73 6 3 3 6
119 7 257 1 210 3 252 15 252 8 0 14 -4 14 -8 0 -5 18 -27 40 -50 120 -122
341 -144 503 -49 94 55 174 177 196 297 5 30 8 105 7 165 -5 155 -42 249 -136
343 -93 92 -258 138 -384 106z m189 -158 c82 -38 141 -109 169 -204 18 -62 15
-207 -5 -262 -47 -133 -161 -210 -303 -206 -124 4 -222 70 -274 185 -21 48
-25 71 -26 161 -1 100 1 110 31 171 79 160 253 227 408 155z"/>
<path d="M3578 4127 c-2 -7 -4 -37 -3 -67 l0 -55 115 -2 c63 -1 130 -2 148 -2
l32 -1 0 -328 0 -329 -162 1 -163 1 -3 -68 -3 -67 393 0 393 0 0 63 c0 76 6
73 -172 72 l-133 -2 -1 46 c0 25 -1 204 -2 396 l-2 350 -217 2 c-156 1 -218
-2 -220 -10z"/>
</g>
</svg>
